<?xml version="1.0" encoding="UTF-8"?>
<svg xmlns="http://www.w3.org/2000/svg" xmlns:xlink="http://www.w3.org/1999/xlink" stroke-dasharray="none" shape-rendering="auto" font-family="'Dialog'" width="720" text-rendering="auto" fill-opacity="1" contentScriptType="text/ecmascript" color-interpolation="auto" color-rendering="auto" preserveAspectRatio="xMidYMid meet" font-size="12" viewBox="0 0 720 426" fill="black" stroke="black" image-rendering="auto" stroke-miterlimit="10" zoomAndPan="magnify" version="1.0" stroke-linecap="square" stroke-linejoin="miter" contentStyleType="text/css" font-style="normal" height="426" stroke-width="1" stroke-dashoffset="0" font-weight="normal" stroke-opacity="1">
<!--Generated by the Batik Graphics2D SVG Generator-->
<defs id="genericDefs"/>
<g>
<defs id="defs1">
<clipPath clipPathUnits="userSpaceOnUse" id="clipPath1">
<path d="M9 9 L711 9 L711 417 L9 417 L9 9 Z"/>
</clipPath>
<clipPath clipPathUnits="userSpaceOnUse" id="clipPath2">
<path d="M12 12 L711 12 L711 29 L12 29 L12 12 Z"/>
</clipPath>
<clipPath clipPathUnits="userSpaceOnUse" id="clipPath3">
<path d="M340 28 L386 28 L386 45 L340 45 L340 28 Z"/>
</clipPath>
<clipPath clipPathUnits="userSpaceOnUse" id="clipPath4">
<path d="M9 45 L711 45 L711 417 L9 417 L9 45 Z"/>
</clipPath>
<clipPath clipPathUnits="userSpaceOnUse" id="clipPath5">
<path d="M44 114 L66 114 L66 136 L44 136 L44 114 Z"/>
</clipPath>
<clipPath clipPathUnits="userSpaceOnUse" id="clipPath6">
<path d="M354 364 L376 364 L376 386 L354 386 L354 364 Z"/>
</clipPath>
<clipPath clipPathUnits="userSpaceOnUse" id="clipPath7">
<path d="M159 104 L237 104 L237 146 L159 146 L159 104 Z"/>
</clipPath>
<clipPath clipPathUnits="userSpaceOnUse" id="clipPath8">
<path d="M190 107 L212 107 L212 124 L190 124 L190 107 Z"/>
</clipPath>
<clipPath clipPathUnits="userSpaceOnUse" id="clipPath9">
<path d="M329 104 L397 104 L397 146 L329 146 L329 104 Z"/>
</clipPath>
<clipPath clipPathUnits="userSpaceOnUse" id="clipPath10">
<path d="M354 107 L377 107 L377 124 L354 124 L354 107 Z"/>
</clipPath>
<clipPath clipPathUnits="userSpaceOnUse" id="clipPath11">
<path d="M329 244 L397 244 L397 286 L329 286 L329 244 Z"/>
</clipPath>
<clipPath clipPathUnits="userSpaceOnUse" id="clipPath12">
<path d="M343 247 L388 247 L388 264 L343 264 L343 247 Z"/>
</clipPath>
<clipPath clipPathUnits="userSpaceOnUse" id="clipPath13">
<path d="M504 179 L572 179 L572 221 L504 221 L504 179 Z"/>
</clipPath>
<clipPath clipPathUnits="userSpaceOnUse" id="clipPath14">
<path d="M520 182 L561 182 L561 199 L520 199 L520 182 Z"/>
</clipPath>
<clipPath clipPathUnits="userSpaceOnUse" id="clipPath15">
<path d="M9 44 L711 44 L711 417 L9 417 L9 44 Z"/>
</clipPath>
<clipPath clipPathUnits="userSpaceOnUse" id="clipPath16">
<path d="M-1 -1 L721 -1 L721 427 L-1 427 L-1 -1 Z"/>
</clipPath>
<clipPath clipPathUnits="userSpaceOnUse" id="clipPath17">
<path d="M489 189 L507 189 L507 202 L489 202 L489 189 Z"/>
</clipPath>
<clipPath clipPathUnits="userSpaceOnUse" id="clipPath18">
<path d="M404 274 L511 274 L511 291 L404 291 L404 274 Z"/>
</clipPath>
<clipPath clipPathUnits="userSpaceOnUse" id="clipPath19">
<path d="M355 229 L368 229 L368 247 L355 247 L355 229 Z"/>
</clipPath>
<clipPath clipPathUnits="userSpaceOnUse" id="clipPath20">
<path d="M369 189 L430 189 L430 206 L369 206 L369 189 Z"/>
</clipPath>
<clipPath clipPathUnits="userSpaceOnUse" id="clipPath21">
<path d="M339 350 L357 350 L357 367 L339 367 L339 350 Z"/>
</clipPath>
<clipPath clipPathUnits="userSpaceOnUse" id="clipPath22">
<path d="M219 299 L305 299 L305 316 L219 316 L219 299 Z"/>
</clipPath>
<clipPath clipPathUnits="userSpaceOnUse" id="clipPath23">
<path d="M144 119 L162 119 L162 132 L144 132 L144 119 Z"/>
</clipPath>
<clipPath clipPathUnits="userSpaceOnUse" id="clipPath24">
<path d="M94 99 L125 99 L125 116 L94 116 L94 99 Z"/>
</clipPath>
<clipPath clipPathUnits="userSpaceOnUse" id="clipPath25">
<path d="M374 369 L392 369 L392 382 L374 382 L374 369 Z"/>
</clipPath>
<clipPath clipPathUnits="userSpaceOnUse" id="clipPath26">
<path d="M429 354 L515 354 L515 371 L429 371 L429 354 Z"/>
</clipPath>
<clipPath clipPathUnits="userSpaceOnUse" id="clipPath27">
<path d="M221 144 L234 144 L234 162 L221 162 L221 144 Z"/>
</clipPath>
<clipPath clipPathUnits="userSpaceOnUse" id="clipPath28">
<path d="M234 244 L295 244 L295 261 L234 261 L234 244 Z"/>
</clipPath>
<clipPath clipPathUnits="userSpaceOnUse" id="clipPath29">
<path d="M235 131 L253 131 L253 144 L235 144 L235 131 Z"/>
</clipPath>
<clipPath clipPathUnits="userSpaceOnUse" id="clipPath30">
<path d="M239 144 L300 144 L300 161 L239 161 L239 144 Z"/>
</clipPath>
<clipPath clipPathUnits="userSpaceOnUse" id="clipPath31">
<path d="M339 369 L357 369 L357 382 L339 382 L339 369 Z"/>
</clipPath>
<clipPath clipPathUnits="userSpaceOnUse" id="clipPath32">
<path d="M219 354 L305 354 L305 371 L219 371 L219 354 Z"/>
</clipPath>
<clipPath clipPathUnits="userSpaceOnUse" id="clipPath33">
<path d="M314 115 L332 115 L332 128 L314 128 L314 115 Z"/>
</clipPath>
<clipPath clipPathUnits="userSpaceOnUse" id="clipPath34">
<path d="M254 99 L311 99 L311 116 L254 116 L254 99 Z"/>
</clipPath>
<clipPath clipPathUnits="userSpaceOnUse" id="clipPath35">
<path d="M532 164 L545 164 L545 182 L532 182 L532 164 Z"/>
</clipPath>
<clipPath clipPathUnits="userSpaceOnUse" id="clipPath36">
<path d="M424 104 L531 104 L531 121 L424 121 L424 104 Z"/>
</clipPath>
<clipPath clipPathUnits="userSpaceOnUse" id="clipPath37">
<path d="M359 349 L372 349 L372 367 L359 367 L359 349 Z"/>
</clipPath>
<clipPath clipPathUnits="userSpaceOnUse" id="clipPath38">
<path d="M374 319 L460 319 L460 336 L374 336 L374 319 Z"/>
</clipPath>
<clipPath clipPathUnits="userSpaceOnUse" id="clipPath39">
<path d="M192 89 L205 89 L205 107 L192 107 L192 89 Z"/>
</clipPath>
<clipPath clipPathUnits="userSpaceOnUse" id="clipPath40">
<path d="M339 74 L400 74 L400 91 L339 91 L339 74 Z"/>
</clipPath>
</defs>
<g fill="white" font-family="'Segoe UI'" stroke-linejoin="round" stroke="white" stroke-width="0" stroke-miterlimit="0">
<rect x="10" y="10" clip-path="url(#clipPath1)" width="700" rx="10" ry="10" height="406" stroke="none"/>
<text x="338" y="26" clip-path="url(#clipPath2)" fill="black" stroke="none" xml:space="preserve">(dumber)</text>
<text x="341" y="42" clip-path="url(#clipPath3)" fill="black" stroke="none" xml:space="preserve">Dumber</text>
<rect x="11" y="47" clip-path="url(#clipPath4)" width="698" height="374" stroke="none"/>
<rect x="10" y="46" clip-path="url(#clipPath4)" width="700" height="376" stroke="none"/>
<circle clip-path="url(#clipPath5)" fill="black" r="9.5" cx="54.5" cy="124.5" stroke="none"/>
</g>
<g stroke-width="1.1" font-family="'Segoe UI'" stroke-linecap="butt">
<circle fill="none" r="9.5" clip-path="url(#clipPath6)" cx="364.5" cy="374.5"/>
<circle r="6.5" clip-path="url(#clipPath6)" cx="364.5" cy="374.5" stroke="none"/>
<rect x="160" y="105" clip-path="url(#clipPath7)" fill="white" width="76" rx="10" ry="10" height="40" stroke="none"/>
<text xml:space="preserve" x="191" y="121" clip-path="url(#clipPath8)" stroke="none">Idle</text>
<rect x="160" y="105" clip-path="url(#clipPath7)" fill="none" width="75" rx="10" ry="10" height="39"/>
<rect x="330" y="105" clip-path="url(#clipPath9)" fill="white" width="66" rx="10" ry="10" height="40" stroke="none"/>
<text xml:space="preserve" x="355" y="121" clip-path="url(#clipPath10)" stroke="none">Run</text>
<rect x="330" y="105" clip-path="url(#clipPath9)" fill="none" width="65" rx="10" ry="10" height="39"/>
<rect x="330" y="245" clip-path="url(#clipPath11)" fill="white" width="66" rx="10" ry="10" height="40" stroke="none"/>
<text xml:space="preserve" x="344" y="261" clip-path="url(#clipPath12)" stroke="none">Low bat</text>
<rect x="330" y="245" clip-path="url(#clipPath11)" fill="none" width="65" rx="10" ry="10" height="39"/>
<rect x="505" y="180" clip-path="url(#clipPath13)" fill="white" width="66" rx="10" ry="10" height="40" stroke="none"/>
<text xml:space="preserve" x="521" y="196" clip-path="url(#clipPath14)" stroke="none">Disable</text>
<rect x="505" y="180" clip-path="url(#clipPath13)" fill="none" width="65" rx="10" ry="10" height="39"/>
<line clip-path="url(#clipPath15)" fill="none" x1="10" x2="710" y1="45" y2="45"/>
<rect x="10" y="10" clip-path="url(#clipPath1)" fill="none" width="699" rx="10" ry="10" height="405"/>
<line clip-path="url(#clipPath16)" fill="none" text-rendering="optimizeLegibility" x1="396" x2="460" y1="266" y2="266"/>
<line clip-path="url(#clipPath16)" fill="none" text-rendering="optimizeLegibility" x1="460" x2="460" y1="266" y2="195"/>
<line clip-path="url(#clipPath16)" fill="none" text-rendering="optimizeLegibility" x1="460" x2="505" y1="195" y2="195"/>
<line clip-path="url(#clipPath17)" fill="none" text-rendering="optimizeLegibility" x1="490" x2="505" y1="200" y2="195"/>
<line clip-path="url(#clipPath17)" fill="none" text-rendering="optimizeLegibility" x1="505" x2="490" y1="195" y2="190"/>
<text x="405" y="288" clip-path="url(#clipPath18)" text-rendering="optimizeLegibility" stroke="none" xml:space="preserve">Watchdog not reset</text>
<line clip-path="url(#clipPath16)" fill="none" text-rendering="optimizeLegibility" x1="361" x2="361" y1="145" y2="245"/>
<line clip-path="url(#clipPath19)" fill="none" text-rendering="optimizeLegibility" x1="356" x2="361" y1="230" y2="245"/>
<line clip-path="url(#clipPath19)" fill="none" text-rendering="optimizeLegibility" x1="361" x2="366" y1="245" y2="230"/>
<text x="370" y="203" clip-path="url(#clipPath20)" text-rendering="optimizeLegibility" stroke="none" xml:space="preserve">Battery low</text>
<line clip-path="url(#clipPath16)" fill="none" text-rendering="optimizeLegibility" x1="337" x2="310" y1="145" y2="175"/>
<line clip-path="url(#clipPath16)" fill="none" text-rendering="optimizeLegibility" x1="310" x2="310" y1="175" y2="325"/>
<line clip-path="url(#clipPath16)" fill="none" text-rendering="optimizeLegibility" x1="310" x2="355" y1="325" y2="365"/>
<line clip-path="url(#clipPath21)" fill="none" text-rendering="optimizeLegibility" x1="340" x2="355" y1="359" y2="365"/>
<line clip-path="url(#clipPath21)" fill="none" text-rendering="optimizeLegibility" x1="355" x2="347" y1="365" y2="351"/>
<text x="220" y="313" clip-path="url(#clipPath22)" text-rendering="optimizeLegibility" stroke="none" xml:space="preserve">Power off event</text>
<line clip-path="url(#clipPath16)" fill="none" text-rendering="optimizeLegibility" x1="65" x2="110" y1="125" y2="125"/>
<line clip-path="url(#clipPath16)" fill="none" text-rendering="optimizeLegibility" x1="110" x2="160" y1="125" y2="125"/>
<line clip-path="url(#clipPath23)" fill="none" text-rendering="optimizeLegibility" x1="145" x2="160" y1="130" y2="125"/>
<line clip-path="url(#clipPath23)" fill="none" text-rendering="optimizeLegibility" x1="160" x2="145" y1="125" y2="120"/>
<text x="95" y="113" clip-path="url(#clipPath24)" text-rendering="optimizeLegibility" stroke="none" xml:space="preserve">Reset</text>
<line clip-path="url(#clipPath16)" fill="none" text-rendering="optimizeLegibility" x1="542" x2="542" y1="220" y2="375"/>
<line clip-path="url(#clipPath16)" fill="none" text-rendering="optimizeLegibility" x1="542" x2="375" y1="375" y2="375"/>
<line clip-path="url(#clipPath25)" fill="none" text-rendering="optimizeLegibility" x1="390" x2="375" y1="370" y2="375"/>
<line clip-path="url(#clipPath25)" fill="none" text-rendering="optimizeLegibility" x1="375" x2="390" y1="375" y2="380"/>
<text x="430" y="368" clip-path="url(#clipPath26)" text-rendering="optimizeLegibility" stroke="none" xml:space="preserve">Power off event</text>
<line clip-path="url(#clipPath16)" fill="none" text-rendering="optimizeLegibility" x1="330" x2="227" y1="265" y2="265"/>
<line clip-path="url(#clipPath16)" fill="none" text-rendering="optimizeLegibility" x1="227" x2="227" y1="265" y2="145"/>
<line clip-path="url(#clipPath27)" fill="none" text-rendering="optimizeLegibility" x1="232" x2="227" y1="160" y2="145"/>
<line clip-path="url(#clipPath27)" fill="none" text-rendering="optimizeLegibility" x1="227" x2="222" y1="145" y2="160"/>
<text x="235" y="258" clip-path="url(#clipPath28)" text-rendering="optimizeLegibility" stroke="none" xml:space="preserve">Reset CMD</text>
<line clip-path="url(#clipPath16)" fill="none" text-rendering="optimizeLegibility" x1="330" x2="282" y1="137" y2="137"/>
<line clip-path="url(#clipPath16)" fill="none" text-rendering="optimizeLegibility" x1="282" x2="236" y1="137" y2="137"/>
<line clip-path="url(#clipPath29)" fill="none" text-rendering="optimizeLegibility" x1="251" x2="236" y1="132" y2="137"/>
<line clip-path="url(#clipPath29)" fill="none" text-rendering="optimizeLegibility" x1="236" x2="251" y1="137" y2="142"/>
<text x="240" y="158" clip-path="url(#clipPath30)" text-rendering="optimizeLegibility" stroke="none" xml:space="preserve">Reset CMD</text>
<line clip-path="url(#clipPath16)" fill="none" text-rendering="optimizeLegibility" x1="198" x2="198" y1="145" y2="375"/>
<line clip-path="url(#clipPath16)" fill="none" text-rendering="optimizeLegibility" x1="198" x2="355" y1="375" y2="375"/>
<line clip-path="url(#clipPath31)" fill="none" text-rendering="optimizeLegibility" x1="340" x2="355" y1="380" y2="375"/>
<line clip-path="url(#clipPath31)" fill="none" text-rendering="optimizeLegibility" x1="355" x2="340" y1="375" y2="370"/>
<text x="220" y="368" clip-path="url(#clipPath32)" text-rendering="optimizeLegibility" stroke="none" xml:space="preserve">Power off event</text>
<line clip-path="url(#clipPath16)" fill="none" text-rendering="optimizeLegibility" x1="236" x2="284" y1="121" y2="121"/>
<line clip-path="url(#clipPath16)" fill="none" text-rendering="optimizeLegibility" x1="284" x2="330" y1="121" y2="121"/>
<line clip-path="url(#clipPath33)" fill="none" text-rendering="optimizeLegibility" x1="315" x2="330" y1="126" y2="121"/>
<line clip-path="url(#clipPath33)" fill="none" text-rendering="optimizeLegibility" x1="330" x2="315" y1="121" y2="116"/>
<text x="255" y="113" clip-path="url(#clipPath34)" text-rendering="optimizeLegibility" stroke="none" xml:space="preserve">Start CMD</text>
<line clip-path="url(#clipPath16)" fill="none" text-rendering="optimizeLegibility" x1="396" x2="538" y1="126" y2="126"/>
<line clip-path="url(#clipPath16)" fill="none" text-rendering="optimizeLegibility" x1="538" x2="538" y1="126" y2="161"/>
<line clip-path="url(#clipPath16)" fill="none" text-rendering="optimizeLegibility" x1="538" x2="538" y1="161" y2="180"/>
<line clip-path="url(#clipPath35)" fill="none" text-rendering="optimizeLegibility" x1="533" x2="538" y1="165" y2="180"/>
<line clip-path="url(#clipPath35)" fill="none" text-rendering="optimizeLegibility" x1="538" x2="543" y1="180" y2="165"/>
<text x="425" y="118" clip-path="url(#clipPath36)" text-rendering="optimizeLegibility" stroke="none" xml:space="preserve">Watchdog not reset</text>
<line clip-path="url(#clipPath16)" fill="none" text-rendering="optimizeLegibility" x1="365" x2="365" y1="285" y2="365"/>
<line clip-path="url(#clipPath37)" fill="none" text-rendering="optimizeLegibility" x1="360" x2="365" y1="350" y2="365"/>
<line clip-path="url(#clipPath37)" fill="none" text-rendering="optimizeLegibility" x1="365" x2="370" y1="365" y2="350"/>
<text x="375" y="333" clip-path="url(#clipPath38)" text-rendering="optimizeLegibility" stroke="none" xml:space="preserve">Power off event</text>
<line clip-path="url(#clipPath16)" fill="none" text-rendering="optimizeLegibility" x1="558" x2="558" y1="180" y2="70"/>
<line clip-path="url(#clipPath16)" fill="none" text-rendering="optimizeLegibility" x1="558" x2="198" y1="70" y2="70"/>
<line clip-path="url(#clipPath16)" fill="none" text-rendering="optimizeLegibility" x1="198" x2="198" y1="70" y2="105"/>
<line clip-path="url(#clipPath39)" fill="none" text-rendering="optimizeLegibility" x1="193" x2="198" y1="90" y2="105"/>
<line clip-path="url(#clipPath39)" fill="none" text-rendering="optimizeLegibility" x1="198" x2="203" y1="105" y2="90"/>
<text x="340" y="88" clip-path="url(#clipPath40)" text-rendering="optimizeLegibility" stroke="none" xml:space="preserve">Reset CMD</text>
<line clip-path="url(#clipPath16)" fill="none" text-rendering="optimizeLegibility" x1="236" x2="284" y1="121" y2="121"/>
<line clip-path="url(#clipPath16)" fill="none" text-rendering="optimizeLegibility" x1="284" x2="330" y1="121" y2="121"/>
<line clip-path="url(#clipPath33)" fill="none" text-rendering="optimizeLegibility" x1="315" x2="330" y1="126" y2="121"/>
<line clip-path="url(#clipPath33)" fill="none" text-rendering="optimizeLegibility" x1="330" x2="315" y1="121" y2="116"/>
<text x="255" y="113" clip-path="url(#clipPath34)" text-rendering="optimizeLegibility" stroke="none" xml:space="preserve">Start CMD</text>
<line clip-path="url(#clipPath16)" fill="none" text-rendering="optimizeLegibility" x1="65" x2="110" y1="125" y2="125"/>
<line clip-path="url(#clipPath16)" fill="none" text-rendering="optimizeLegibility" x1="110" x2="160" y1="125" y2="125"/>
<line clip-path="url(#clipPath23)" fill="none" text-rendering="optimizeLegibility" x1="145" x2="160" y1="130" y2="125"/>
<line clip-path="url(#clipPath23)" fill="none" text-rendering="optimizeLegibility" x1="160" x2="145" y1="125" y2="120"/>
<text x="95" y="113" clip-path="url(#clipPath24)" text-rendering="optimizeLegibility" stroke="none" xml:space="preserve">Reset</text>
<line clip-path="url(#clipPath16)" fill="none" text-rendering="optimizeLegibility" x1="361" x2="361" y1="145" y2="245"/>
<line clip-path="url(#clipPath19)" fill="none" text-rendering="optimizeLegibility" x1="356" x2="361" y1="230" y2="245"/>
<line clip-path="url(#clipPath19)" fill="none" text-rendering="optimizeLegibility" x1="361" x2="366" y1="245" y2="230"/>
<text x="370" y="203" clip-path="url(#clipPath20)" text-rendering="optimizeLegibility" stroke="none" xml:space="preserve">Battery low</text>
<line clip-path="url(#clipPath16)" fill="none" text-rendering="optimizeLegibility" x1="396" x2="538" y1="126" y2="126"/>
<line clip-path="url(#clipPath16)" fill="none" text-rendering="optimizeLegibility" x1="538" x2="538" y1="126" y2="161"/>
<line clip-path="url(#clipPath16)" fill="none" text-rendering="optimizeLegibility" x1="538" x2="538" y1="161" y2="180"/>
<line clip-path="url(#clipPath35)" fill="none" text-rendering="optimizeLegibility" x1="533" x2="538" y1="165" y2="180"/>
<line clip-path="url(#clipPath35)" fill="none" text-rendering="optimizeLegibility" x1="538" x2="543" y1="180" y2="165"/>
<text x="425" y="118" clip-path="url(#clipPath36)" text-rendering="optimizeLegibility" stroke="none" xml:space="preserve">Watchdog not reset</text>
<line clip-path="url(#clipPath16)" fill="none" text-rendering="optimizeLegibility" x1="396" x2="460" y1="266" y2="266"/>
<line clip-path="url(#clipPath16)" fill="none" text-rendering="optimizeLegibility" x1="460" x2="460" y1="266" y2="195"/>
<line clip-path="url(#clipPath16)" fill="none" text-rendering="optimizeLegibility" x1="460" x2="505" y1="195" y2="195"/>
<line clip-path="url(#clipPath17)" fill="none" text-rendering="optimizeLegibility" x1="490" x2="505" y1="200" y2="195"/>
<line clip-path="url(#clipPath17)" fill="none" text-rendering="optimizeLegibility" x1="505" x2="490" y1="195" y2="190"/>
<text x="405" y="288" clip-path="url(#clipPath18)" text-rendering="optimizeLegibility" stroke="none" xml:space="preserve">Watchdog not reset</text>
<line clip-path="url(#clipPath16)" fill="none" text-rendering="optimizeLegibility" x1="198" x2="198" y1="145" y2="375"/>
<line clip-path="url(#clipPath16)" fill="none" text-rendering="optimizeLegibility" x1="198" x2="355" y1="375" y2="375"/>
<line clip-path="url(#clipPath31)" fill="none" text-rendering="optimizeLegibility" x1="340" x2="355" y1="380" y2="375"/>
<line clip-path="url(#clipPath31)" fill="none" text-rendering="optimizeLegibility" x1="355" x2="340" y1="375" y2="370"/>
<text x="220" y="368" clip-path="url(#clipPath32)" text-rendering="optimizeLegibility" stroke="none" xml:space="preserve">Power off event</text>
<line clip-path="url(#clipPath16)" fill="none" text-rendering="optimizeLegibility" x1="542" x2="542" y1="220" y2="375"/>
<line clip-path="url(#clipPath16)" fill="none" text-rendering="optimizeLegibility" x1="542" x2="375" y1="375" y2="375"/>
<line clip-path="url(#clipPath25)" fill="none" text-rendering="optimizeLegibility" x1="390" x2="375" y1="370" y2="375"/>
<line clip-path="url(#clipPath25)" fill="none" text-rendering="optimizeLegibility" x1="375" x2="390" y1="375" y2="380"/>
<text x="430" y="368" clip-path="url(#clipPath26)" text-rendering="optimizeLegibility" stroke="none" xml:space="preserve">Power off event</text>
<line clip-path="url(#clipPath16)" fill="none" text-rendering="optimizeLegibility" x1="330" x2="282" y1="137" y2="137"/>
<line clip-path="url(#clipPath16)" fill="none" text-rendering="optimizeLegibility" x1="282" x2="236" y1="137" y2="137"/>
<line clip-path="url(#clipPath29)" fill="none" text-rendering="optimizeLegibility" x1="251" x2="236" y1="132" y2="137"/>
<line clip-path="url(#clipPath29)" fill="none" text-rendering="optimizeLegibility" x1="236" x2="251" y1="137" y2="142"/>
<text x="240" y="158" clip-path="url(#clipPath30)" text-rendering="optimizeLegibility" stroke="none" xml:space="preserve">Reset CMD</text>
<line clip-path="url(#clipPath16)" fill="none" text-rendering="optimizeLegibility" x1="330" x2="227" y1="265" y2="265"/>
<line clip-path="url(#clipPath16)" fill="none" text-rendering="optimizeLegibility" x1="227" x2="227" y1="265" y2="145"/>
<line clip-path="url(#clipPath27)" fill="none" text-rendering="optimizeLegibility" x1="232" x2="227" y1="160" y2="145"/>
<line clip-path="url(#clipPath27)" fill="none" text-rendering="optimizeLegibility" x1="227" x2="222" y1="145" y2="160"/>
<text x="235" y="258" clip-path="url(#clipPath28)" text-rendering="optimizeLegibility" stroke="none" xml:space="preserve">Reset CMD</text>
<line clip-path="url(#clipPath16)" fill="none" text-rendering="optimizeLegibility" x1="365" x2="365" y1="285" y2="365"/>
<line clip-path="url(#clipPath37)" fill="none" text-rendering="optimizeLegibility" x1="360" x2="365" y1="350" y2="365"/>
<line clip-path="url(#clipPath37)" fill="none" text-rendering="optimizeLegibility" x1="365" x2="370" y1="365" y2="350"/>
<text x="375" y="333" clip-path="url(#clipPath38)" text-rendering="optimizeLegibility" stroke="none" xml:space="preserve">Power off event</text>
<line clip-path="url(#clipPath16)" fill="none" text-rendering="optimizeLegibility" x1="558" x2="558" y1="180" y2="70"/>
<line clip-path="url(#clipPath16)" fill="none" text-rendering="optimizeLegibility" x1="558" x2="198" y1="70" y2="70"/>
<line clip-path="url(#clipPath16)" fill="none" text-rendering="optimizeLegibility" x1="198" x2="198" y1="70" y2="105"/>
<line clip-path="url(#clipPath39)" fill="none" text-rendering="optimizeLegibility" x1="193" x2="198" y1="90" y2="105"/>
<line clip-path="url(#clipPath39)" fill="none" text-rendering="optimizeLegibility" x1="198" x2="203" y1="105" y2="90"/>
<text x="340" y="88" clip-path="url(#clipPath40)" text-rendering="optimizeLegibility" stroke="none" xml:space="preserve">Reset CMD</text>
<line clip-path="url(#clipPath16)" fill="none" text-rendering="optimizeLegibility" x1="337" x2="310" y1="145" y2="175"/>
<line clip-path="url(#clipPath16)" fill="none" text-rendering="optimizeLegibility" x1="310" x2="310" y1="175" y2="325"/>
<line clip-path="url(#clipPath16)" fill="none" text-rendering="optimizeLegibility" x1="310" x2="355" y1="325" y2="365"/>
<line clip-path="url(#clipPath21)" fill="none" text-rendering="optimizeLegibility" x1="340" x2="355" y1="359" y2="365"/>
<line clip-path="url(#clipPath21)" fill="none" text-rendering="optimizeLegibility" x1="355" x2="347" y1="365" y2="351"/>
<text x="220" y="313" clip-path="url(#clipPath22)" text-rendering="optimizeLegibility" stroke="none" xml:space="preserve">Power off event</text>
</g>
</g>
</svg>
